<svg width="196" height="71" viewBox="0 0 196 71" fill="none" xmlns="http://www.w3.org/2000/svg">
<g clip-path="url(#clip0_15839_164262)">
<path d="M20.9227 10.8228V17.3365L20.9528 19.1806H18.4976L18.5277 17.3365V2.92609L18.4976 1.08203H25.4718V3.17891H20.9378V8.65161H24.6132V10.8228H20.9378H20.9227Z" fill="black"/>
<path d="M31.4971 18.5707C30.5783 17.7081 30.1565 16.34 30.1565 13.1277V7.11965C30.1565 3.92228 30.5632 2.53924 31.4971 1.70643C32.0394 1.2008 32.913 0.769531 34.2386 0.769531C35.5641 0.769531 36.4227 1.2008 36.9801 1.70643C37.8989 2.53924 38.3207 3.93715 38.3207 7.11965V13.1277C38.3207 16.34 37.914 17.7081 36.9801 18.5707C36.4227 19.0763 35.5491 19.4778 34.2386 19.4778C32.9281 19.4778 32.0394 19.0763 31.4971 18.5707ZM35.8805 13.6334V6.61402C35.8805 4.53201 35.8805 3.01512 34.2386 3.01512C32.5967 3.01512 32.5967 4.53201 32.5967 6.61402V13.6334C32.5967 15.7154 32.5967 17.2322 34.2386 17.2322C35.8805 17.2322 35.8805 15.7154 35.8805 13.6334Z" fill="black"/>
<path d="M46.5299 11.4623V17.3365L46.56 19.1806H44.1047L44.1349 17.3365V2.92609L44.1047 1.08203H47.6897C51.3802 1.08203 52.3141 3.41685 52.3141 6.27217V6.31679C52.3141 8.32444 51.7417 10.0347 50.1902 10.8972L52.6756 19.1806H50.0848L47.8856 11.4623H46.545H46.5299ZM46.5299 9.41005H47.5241C49.2864 9.41005 49.7835 8.04188 49.7835 6.34653V6.27217C49.7835 4.57683 49.3467 3.17891 47.4035 3.17891H46.5299V9.41005Z" fill="black"/>
<path d="M67.3471 3.17864V17.3363L67.3773 19.1803H64.937L64.9672 17.3363V3.17864H62.0449V1.06689H70.2844V3.17864H67.3622H67.3471Z" fill="black"/>
<path d="M83.329 1.06689L83.2989 2.91096V17.3363L83.329 19.1803H80.8737L80.9038 17.3363V10.8226H77.5899V17.3363L77.6201 19.1803H75.1648L75.1949 17.3363V2.92583L75.1648 1.08177H77.6201L77.5899 2.92583V8.65134H80.9038V2.92583L80.8737 1.08177H83.329V1.06689Z" fill="black"/>
<path d="M91.885 10.8228V17.0837H96.5546V19.1806H89.4448L89.475 17.3365V2.92609L89.4448 1.08203H96.4492V3.17891H91.885V8.65161H95.5604V10.8228H91.885Z" fill="black"/>
<path d="M107.535 17.3365V2.92609L107.505 1.08203H111.09C114.781 1.08203 115.715 3.41685 115.715 6.33166V6.37627C115.715 9.26134 114.796 11.5962 111.09 11.5962H109.931V17.3514L109.961 19.1955H107.505L107.535 17.3514V17.3365ZM110.819 9.48441C112.762 9.48441 113.199 8.11624 113.199 6.37627V6.33166C113.199 4.57683 112.762 3.19378 110.819 3.19378H109.946V9.48441H110.819Z" fill="black"/>
<path d="M123.05 10.8228V17.0837H127.72V19.1806H120.61L120.64 17.3365V2.92609L120.61 1.08203H127.614V3.17891H123.05V8.65161H126.726V10.8228H123.05Z" fill="black"/>
<path d="M134.182 18.5707C133.263 17.7081 132.856 16.34 132.856 13.1277V7.11965C132.856 3.92228 133.263 2.53924 134.182 1.70643C134.724 1.2008 135.598 0.769531 136.923 0.769531C138.249 0.769531 139.108 1.2008 139.665 1.70643C140.584 2.53924 141.006 3.93715 141.006 7.11965V13.1277C141.006 16.34 140.599 17.7081 139.665 18.5707C139.093 19.0763 138.234 19.4778 136.923 19.4778C135.613 19.4778 134.724 19.0763 134.182 18.5707ZM138.565 13.6334V6.61402C138.565 4.53201 138.565 3.01512 136.923 3.01512C135.282 3.01512 135.282 4.53201 135.282 6.61402V13.6334C135.282 15.7154 135.282 17.2322 136.923 17.2322C138.565 17.2322 138.565 15.7154 138.565 13.6334Z" fill="black"/>
<path d="M146.79 17.3365V2.92609L146.76 1.08203H150.345C154.035 1.08203 154.969 3.41685 154.969 6.33166V6.37627C154.969 9.26134 154.05 11.5962 150.345 11.5962H149.185V17.3514L149.215 19.1955H146.76L146.79 17.3514V17.3365ZM150.073 9.48441C152.017 9.48441 152.453 8.11624 152.453 6.37627V6.33166C152.453 4.57683 152.017 3.19378 150.073 3.19378H149.2V9.48441H150.073Z" fill="black"/>
<path d="M159.865 19.1806L159.895 17.3365V2.92609L159.865 1.08203H162.32L162.29 2.92609V17.0837H166.492V19.1806H159.85H159.865Z" fill="black"/>
<path d="M173.843 10.8228V17.0837H178.512V19.1806H171.403L171.433 17.3365V2.92609L171.403 1.08203H178.407V3.17891H173.843V8.65161H177.518V10.8228H173.843Z" fill="black"/>
<path d="M7.44126 70.0554C7.39607 69.9662 7.39607 69.8919 7.39607 69.8026C7.39607 68.9103 7.35088 68.0478 7.35088 67.1555C7.35088 66.4268 7.39607 65.6981 7.39607 64.9397C7.44126 64.434 7.39607 63.9135 7.39607 63.4079H7.44126V60.3295C7.44126 59.7346 7.48645 59.1398 7.44126 58.5301C7.30569 56.6116 7.18519 54.6337 6.95924 52.6707C6.91405 52.0312 6.65798 51.3471 6.47722 50.7077C6.34166 50.2764 6.22115 49.8897 6.04039 49.5179C5.9952 49.3097 5.90483 49.1313 5.78432 48.9677C5.73913 48.8785 5.57344 48.8339 5.48306 48.8339L4.27801 49.2205C4.14244 49.2651 4.11232 49.4287 4.11232 49.6072C4.06713 50.2467 4.06713 50.8861 4.06713 51.5702C3.97675 53.0276 4.15751 54.5148 3.97675 55.9722C4.18763 57.5932 4.06713 59.2141 4.23282 60.85C4.36839 62.129 4.39852 63.4525 4.36839 64.7761C4.3232 66.0104 4.3232 67.3042 3.97675 68.4939C3.93156 68.6575 3.88637 68.836 3.88637 68.9996C3.97675 69.4308 3.7508 69.6837 3.32904 69.8175C2.72652 70.0257 2.12399 70.2042 1.50641 70.3677C1.37084 70.4124 1.25033 70.4124 1.11477 70.4124C0.903882 70.4124 0.677936 70.2488 0.632746 70.0703V69.639L0.497179 65.2817C0.497179 64.5976 0.451989 63.9135 0.451989 63.2294V62.4561C0.451989 61.3854 0.316422 60.3146 0.241106 59.2141C0.241106 58.7085 0.150728 58.1434 0.150728 57.6378V52.8492C0.150728 51.5256 0.105538 50.202 0.105538 48.9231C0.105538 48.3282 0.150728 47.7334 0.150728 47.1236C0.150728 45.8447 0.105538 44.5657 0.105538 43.2719V38.9146C0.105538 37.7992 -0.0300293 36.6987 -0.0300293 35.5834C0.01516 34.5573 0.135665 33.5311 0.226043 32.505C0.226043 32.2522 0.226043 31.9994 0.271232 31.7317C0.316422 31.2558 0.4068 30.7948 0.436926 30.3189C0.527305 30.0215 0.692999 29.843 0.99426 29.843C1.25033 29.843 1.50641 29.843 1.77754 29.8876C2.47044 29.9768 3.20853 30.0958 3.90144 30.2743C4.33826 30.3635 4.45877 30.4825 4.41358 30.8691L4.27801 32.8322C4.18763 33.8583 4.02194 34.8844 4.02194 35.9106C4.06713 37.4423 4.02194 38.9889 4.02194 40.5207C4.02194 41.6361 4.06713 42.7366 4.06713 43.8519C4.06713 44.0155 4.06713 44.194 4.11232 44.3575C4.11232 44.4022 4.24789 44.4468 4.3232 44.4468C4.36839 44.4468 4.45877 44.4022 4.53408 44.3575C5.31737 43.8073 5.8747 43.1232 6.22115 42.2607C6.91405 40.5058 7.35088 38.7064 7.39607 36.8326C7.39607 35.8511 7.44126 34.8696 7.53164 33.8434C7.62202 32.9065 7.39607 31.9994 7.36594 31.0625C7.36594 30.8543 7.32076 30.6312 7.32076 30.4676C7.32076 30.0809 7.53164 29.8727 7.87809 29.8281C8.26973 29.8281 8.66137 29.8281 9.00782 29.8727C9.51997 29.9174 10.0472 30.0066 10.5593 30.0363C10.6949 30.0363 10.7702 30.0363 10.9058 30.0809C11.3075 30.1404 11.5384 30.3685 11.5987 30.765C11.7342 31.5383 11.8096 32.3414 11.7342 33.1593C11.689 33.5906 11.689 34.007 11.689 34.4383C11.6439 35.4644 11.5535 36.5352 11.5234 37.5613C11.4782 38.3346 11.3125 39.0633 11.2221 39.7771C11.0865 40.9371 10.7401 41.993 10.3936 43.0637C10.1827 43.8817 9.7911 44.5657 9.35427 45.2498C9.26389 45.3837 9.18858 45.5027 9.05301 45.6365C8.91744 45.8893 8.84213 46.1124 9.00782 46.3652L9.14339 46.7072C9.83629 47.897 10.2279 49.2651 10.6196 50.6036C10.8305 51.4215 10.966 52.2246 10.966 53.0425C11.0112 54.4107 11.1016 55.7342 11.1317 57.0578C11.1769 57.7419 11.2221 58.426 10.9961 59.11V59.3629C11.2522 60.2105 10.9961 61.0731 11.0413 61.891C11.0413 62.7387 10.9961 63.6012 11.0865 64.4489C11.1317 64.9991 11.0413 65.6089 10.951 66.1591C10.8154 66.8878 10.9961 67.5719 10.9961 68.3006C10.9961 68.5088 11.1618 68.6873 11.2522 68.8955C11.3878 69.3267 11.3426 69.4903 10.951 69.6688C10.6045 69.877 10.1677 70.0554 9.77604 70.1447C9.2187 70.3083 8.64631 70.3975 8.08897 70.5313C7.74252 70.6206 7.44126 70.3975 7.39607 70.0554H7.44126ZM20.8625 63.2592C20.3804 63.4228 19.9135 63.4228 19.4315 63.2146L18.2264 62.5751C17.88 62.4115 17.6239 62.1438 17.398 61.8464C17.0967 61.3705 16.7954 60.9095 16.449 60.5228C15.8465 59.8834 15.6205 59.11 15.4548 58.307C15.2439 57.3701 15.1084 56.3886 15.2439 55.4071C15.2891 55.2435 15.2439 55.0204 15.2439 54.8122C15.2439 53.5779 15.2439 52.3287 15.1987 51.0497V48.7446H15.2439C15.2439 46.2611 15.2891 43.7924 15.2439 41.3089C15.2439 40.4166 15.3795 39.5541 15.6356 38.7064C15.7711 38.409 15.8465 38.0669 15.9368 37.7249C16.1025 37.2936 16.2381 36.8772 16.4942 36.4905C16.6297 36.327 16.7051 36.1485 16.7502 35.9849C17.0515 35.1372 17.6992 34.5721 18.3921 34.0219C19.085 33.4716 19.9135 33.2932 20.8173 33.2039C21.2089 33.1593 21.6457 33.0701 22.0675 33.2932C22.2031 33.3824 22.3688 33.3378 22.5043 33.3378C23.3629 33.2486 24.1462 33.5906 24.8843 34.0219C25.3211 34.2747 25.7128 34.6167 25.9237 35.0926C26.0894 35.4347 26.3153 35.7321 26.5262 36.0295C26.7823 36.3716 26.963 36.7136 27.0383 37.1003C27.2944 38.3792 27.5204 39.6582 27.3848 40.9966C27.2492 42.1863 27.3396 43.3909 27.3396 44.5806V46.1124C27.2944 47.8226 27.3848 49.5328 27.2492 51.243C27.2492 51.5405 27.2492 51.7933 27.3848 52.061C27.5957 52.403 27.5957 52.7897 27.5957 53.1317C27.5053 53.9496 27.4601 54.7081 27.1588 55.4814C26.948 55.987 26.9028 56.5522 26.8124 57.0578C26.7672 57.1916 26.8124 57.3106 26.8124 57.3998C27.0233 58.2921 26.8124 59.11 26.4207 59.8834C26.3304 60.0469 26.2099 60.2254 26.0743 60.3592L24.6433 61.9802C24.2969 62.4115 23.86 62.7982 23.3479 63.051C23.0918 63.1848 22.8357 63.2592 22.5646 63.1402C22.0525 62.8874 21.5704 63.0956 21.0884 63.1848L20.8323 63.3187L20.8625 63.2592ZM20.9528 58.9465C21.6909 59.0357 22.1579 58.649 22.5495 58.0988C22.7604 57.846 22.9412 57.5485 22.7604 57.1619C22.7152 57.0727 22.7152 56.9091 22.7152 56.7752C22.7604 55.5855 22.7604 54.4255 22.8809 53.2656C23.0165 51.8082 23.137 50.3656 23.1822 48.9082C23.1822 47.4508 23.0918 46.0083 23.1822 44.5509C23.1822 44.5063 23.137 44.4616 23.137 44.3873C23.137 43.0191 23.137 41.6063 23.3027 40.2382C23.3931 39.5095 23.2123 38.8254 23.0014 38.1413C22.911 37.9331 22.7905 37.71 22.6098 37.5464C22.5646 37.4572 22.4441 37.3828 22.3537 37.3828C22.0976 37.2936 21.7964 37.2192 21.4951 37.249C21.0131 37.2936 20.501 37.2936 20.3654 37.9331L20.3202 37.9777C19.7177 39.1377 19.326 40.2828 19.326 41.5617C19.3712 43.2273 19.3712 44.8483 19.3712 46.5139C19.326 47.7036 19.2808 48.9082 19.2808 50.0979C19.2808 50.8266 19.326 51.5107 19.2808 52.2394C19.2357 52.9235 19.2357 53.6522 19.2808 54.3809C19.326 55.065 19.1905 55.7491 19.2808 56.4778C19.4164 57.2957 19.5821 58.0542 20.1394 58.6639C20.3503 58.9167 20.4859 59.1398 20.7872 58.9613H20.9227L20.9528 58.9465ZM44.1199 62.7536C44.0747 62.6197 44.0747 62.4561 44.0747 62.3223V59.1993C44.0295 58.0096 43.9391 56.805 43.909 55.5706C43.8638 54.723 43.909 53.8158 43.909 52.9235C43.8638 50.8713 43.8638 48.7744 43.8638 46.6775L43.7282 43.1678C43.7282 42.915 43.7282 42.6176 43.7734 42.3202C43.8638 40.8181 43.8186 39.331 43.7734 37.7844C43.7734 37.6951 43.8186 37.5762 43.7734 37.4423C43.683 37.3531 43.6077 37.2341 43.4722 37.1895C43.3366 37.1003 43.2161 37.1449 43.0353 37.1449C42.252 37.1003 41.4838 37.1003 40.7006 37.1003C40.5349 37.0557 40.3541 37.1003 40.1884 37.0557C39.2846 36.8475 39.3599 36.9664 39.3599 36.1188V33.9773C39.4051 33.8137 39.3599 33.6352 39.4051 33.4716C39.4955 33.1296 39.5708 32.9957 40.0076 32.9957C40.8662 33.0404 41.6947 32.9957 42.5232 32.9957C44.6471 33.0404 46.7258 33.2486 48.8497 33.1593C49.9794 33.1147 51.0639 33.1593 52.1334 33.1593C52.3443 33.1593 52.5703 33.1593 52.736 33.2039C52.9016 33.2039 52.992 33.3378 52.992 33.4568C52.992 33.7096 52.992 33.9326 52.9468 34.1409C52.8565 34.6911 52.7811 35.2116 52.6456 35.7172C52.5552 36.1039 52.4347 36.4459 52.2991 36.788C52.2087 36.9218 52.043 36.9962 51.9075 37.0854C51.7719 37.13 51.6062 37.0854 51.4706 37.0854L48.2622 37.2192C48.0965 37.2192 47.961 37.2192 47.8254 37.2639C47.735 37.3085 47.6145 37.3977 47.5693 37.4721C47.5241 37.7249 47.4789 37.9777 47.4789 38.2454C47.4789 38.751 47.4789 39.3161 47.5241 39.8218C47.6597 40.9371 47.735 42.0376 47.6898 43.153C47.6898 44.0899 47.735 45.0268 47.7802 45.9785C47.9158 47.9416 47.9459 49.9046 47.9459 51.8825C47.9007 52.3881 47.9911 52.9533 47.9911 53.5035C48.0363 56.106 48.1568 58.7234 48.1266 61.3259C48.1266 62.1736 48.1266 62.4413 47.0421 62.6941C46.2588 62.9023 45.4454 62.9915 44.6621 63.1253C44.3157 63.17 44.15 63.0361 44.1048 62.7387L44.1199 62.7536ZM55.1159 63.1402C54.9804 62.8428 54.8598 62.59 55.0255 62.2479C55.2364 61.9059 55.1611 61.4746 55.0707 61.088C54.9804 60.6567 54.9804 60.2403 54.9804 59.809C54.9352 58.7829 54.9804 57.7121 54.9804 56.686C54.9804 56.5224 55.0707 56.344 55.0707 56.1804C55.1159 55.6747 55.1159 55.1542 55.1611 54.6486C55.2967 53.0722 55.1159 51.481 55.1159 49.9046C55.1159 48.3282 55.1159 46.6924 55.2063 45.116C55.2515 43.8817 55.2515 42.6325 55.2063 41.4427C55.1611 40.5951 55.2515 39.7325 55.2967 38.8848C55.3419 37.6951 55.3871 36.4459 55.3871 35.2562C55.3871 34.9142 55.3419 34.6167 55.3419 34.3193C55.3419 34.1557 55.2967 33.9773 55.3419 33.8137C55.4322 33.4716 55.6431 33.2634 55.9896 33.1742H56.336C57.3754 33.1742 58.4599 33.1742 59.5445 33.2188C61.2767 33.308 62.9638 33.3824 64.696 33.308C65.3438 33.2634 65.5546 33.2634 65.4793 34.126C65.4341 34.6019 65.4341 35.0629 65.4793 35.4942C65.4793 35.97 65.3136 36.3864 65.1781 36.8177C65.0877 37.0705 64.9672 37.2044 64.696 37.2936L63.8374 37.4274H61.6684C61.111 37.4274 60.5386 37.3828 59.9361 37.3828C59.68 37.3828 59.5897 37.4721 59.5897 37.7695C59.4993 38.6172 59.4541 39.5243 59.424 40.372C59.3788 40.9669 59.3788 41.5617 59.3788 42.1714V45.3391C59.3788 45.5473 59.3336 45.7703 59.2884 45.9339C59.2432 46.4396 59.198 46.9601 59.3788 47.4657C59.3788 47.5549 59.424 47.6739 59.424 47.8077C59.5595 48.9231 59.5143 48.7446 60.5989 48.7446L62.8433 48.6108C63.1445 48.6108 63.491 48.5662 63.7923 48.5662C64.3044 48.5216 64.3948 48.6554 64.3044 49.2056C64.2592 49.5477 64.214 49.8897 64.2592 50.2318C64.3044 50.782 64.1688 51.3025 64.0935 51.8528C64.0483 52.061 63.958 52.1948 63.8374 52.3584C63.7169 52.522 63.5362 52.6112 63.3253 52.6112C62.4215 52.7451 61.5027 52.7748 60.5537 52.7748C60.388 52.7748 60.1621 52.7748 59.9512 52.8194C59.8156 52.8194 59.6951 52.9533 59.6951 53.0722C59.6499 53.4589 59.5595 53.8455 59.6047 54.1876C59.6047 55.0799 59.5595 56.0316 59.4692 56.9239C59.3788 57.608 59.424 58.3367 59.4692 59.0654C59.4692 59.2736 59.5595 59.3629 59.7704 59.3629C60.4181 59.3182 61.0206 59.3182 61.6684 59.2736L64.0935 59.0208C64.3496 59.0208 64.6508 59.0208 64.9521 59.0654C65.4341 59.11 65.5094 59.1993 65.4341 59.7049C65.3438 60.389 65.3438 61.1177 65.1329 61.8018L64.9973 62.2777C64.7864 62.8279 64.3948 63.0956 63.8224 63.1253C61.096 63.3782 58.4147 63.7202 55.6883 63.6012C55.3871 63.5566 55.2063 63.4674 55.131 63.17L55.1159 63.1402ZM86.5526 46.6329C86.4622 44.536 86.3869 42.7812 86.3417 41.0263C86.2965 40.6843 86.2513 40.2976 86.2513 39.9556L85.9952 37.7397C85.9952 37.6059 86.0856 37.5315 86.2061 37.4869H86.899C88.1945 37.4869 89.4899 37.4423 90.8004 37.3977C91.1468 37.3531 91.4029 37.2341 91.5385 36.9218C91.5836 36.7582 91.674 36.6244 91.7041 36.4459C91.915 35.7172 92.0054 34.9885 92.0506 34.2598C92.0958 34.0516 92.0958 33.8285 92.0958 33.665C92.0506 33.4568 91.9602 33.3229 91.7493 33.3229C91.4481 33.2783 91.1468 33.2783 90.8004 33.2783C90.1978 33.2783 89.5501 33.3229 88.9024 33.3229C87.5618 33.3229 86.2212 33.2783 84.8354 33.2337L79.8194 33.0998C79.3825 33.0998 78.9156 33.0552 78.4336 33.0552C78.0871 33.0552 77.9214 33.1891 77.831 33.5311C77.7407 33.6947 77.7407 33.9178 77.7407 34.126C77.7859 34.8101 77.831 35.4942 77.9064 36.1782C77.9064 36.3864 77.9967 36.6095 78.0721 36.8177C78.1624 36.9813 78.2378 37.1151 78.4637 37.1151C78.8102 37.2044 79.1566 37.249 79.5031 37.2787C80.2411 37.2787 80.9792 37.2787 81.7475 37.3233C82.0487 37.3233 82.1391 37.4126 82.1843 37.71C82.2295 38.6469 82.3198 39.5838 82.35 40.5356L82.4855 45.9637C82.4855 47.2426 82.5307 48.5216 82.5307 49.8154C82.4855 51.2728 82.5307 52.6856 82.5759 54.0835C82.5759 54.6337 82.7115 55.2435 82.6211 55.7937C82.5759 56.1358 82.832 56.2993 83.1784 56.2696C83.4345 56.2696 83.6906 56.1358 83.9165 56.1358C84.6094 56.225 85.212 55.8829 85.8597 55.7045C86.4622 55.5706 86.6881 55.2286 86.6881 54.5891C86.6881 54.2471 86.643 53.905 86.643 53.563C86.5978 52.8343 86.5526 52.1502 86.5526 51.4215V46.5883V46.6329ZM82.6964 62.7982C82.7416 63.1402 82.832 63.2294 83.2086 63.1848C83.8111 63.0956 84.4588 63.0212 85.0764 62.8874C85.3325 62.8428 85.5584 62.7536 85.8145 62.6792C86.1609 62.59 86.2965 62.3372 86.3266 61.9951C86.3266 61.4449 86.3718 60.8351 86.417 60.2849C86.4622 59.9428 86.4622 59.5562 86.4622 59.1695C86.4622 58.9167 86.417 58.8275 86.1609 58.7383C85.468 58.5747 84.8203 58.3962 84.1274 58.2624C83.9165 58.2178 83.6153 58.2178 83.3893 58.2624C82.8772 58.307 82.6512 58.5152 82.5609 58.9911C82.5157 59.3777 82.5157 59.7644 82.4705 60.1808C82.3801 61.0285 82.5609 61.9356 82.6814 62.7833L82.6964 62.7982ZM93.6925 62.3669C93.6925 62.5751 93.828 62.7089 94.0389 62.7089C94.6414 62.7982 95.2892 62.7982 95.9067 62.9171C96.3888 63.0064 96.8105 62.9171 97.2474 62.7833C97.639 62.6941 97.8499 62.4413 97.8499 62.0546C97.8499 61.4597 98.0156 60.9392 98.1511 60.389C98.2867 59.8387 98.4072 59.2736 98.4072 58.6788C98.362 58.1731 98.5428 57.608 98.5729 57.1024C98.6181 56.805 98.7838 56.6265 99.0851 56.6265C99.9436 56.5373 100.862 56.4183 101.766 56.3737C103.664 56.3291 105.622 56.3291 107.52 56.3291C108.515 56.3291 109.509 56.3737 110.458 56.3737C110.849 56.3737 110.94 56.5075 110.97 56.8496C111.105 57.7865 111.226 58.768 111.316 59.7198C111.407 60.4039 111.452 61.0433 111.527 61.6828C111.618 62.2331 111.738 62.7982 111.874 63.3484C111.964 63.6905 112.039 63.7351 112.386 63.6905C113.169 63.6012 113.937 63.6458 114.675 63.8243C114.886 63.8689 115.157 63.8689 115.368 63.8689C115.76 63.8689 115.926 63.7351 115.926 63.393C115.971 62.9171 115.971 62.4115 115.926 61.9356C115.835 61.1177 115.76 60.3146 115.624 59.4967C115.579 59.0208 115.459 58.5598 115.459 58.1285C115.504 56.9388 115.203 55.7342 115.157 54.5445C115.112 53.7266 115.022 52.9235 115.067 52.1056C115.203 50.44 115.157 48.8636 114.63 47.2724C114.585 47.1088 114.585 46.9303 114.585 46.7667C114.54 46.2611 114.329 45.7406 114.54 45.1904C114.54 45.1457 114.449 45.1011 114.449 45.0268C114.359 44.4765 114.193 43.8668 114.058 43.3165C113.922 42.5878 113.922 41.8145 113.892 41.1007L113.756 39.6433C113.666 38.9592 113.546 38.2305 113.5 37.5464C113.41 36.5649 113.335 35.5388 113.199 34.5572C113.033 33.5757 112.853 33.3973 111.904 33.3675C111.211 33.3229 110.563 33.2783 109.915 33.2783C109.223 33.2783 108.575 33.2783 107.927 33.3675C107.234 33.4121 106.586 33.3675 105.939 33.3229C105.683 33.3229 105.381 33.3229 105.08 33.3675C104.176 33.5014 103.258 33.5014 102.309 33.5014C102.052 33.546 101.796 33.4568 101.57 33.546C101.134 33.7096 100.712 33.6798 100.275 33.5906C99.8382 33.5014 99.3713 33.4568 98.9344 33.3824C98.4976 33.308 98.2415 33.4716 98.0306 33.7691C97.3829 34.706 96.9009 35.7321 96.9461 36.9367C96.9461 37.7546 96.8105 38.5131 96.69 39.2864C96.5545 39.9705 96.4791 40.6546 96.3888 41.3386C96.2532 42.4986 96.2231 43.6437 96.0423 44.8037C95.9519 45.696 95.7411 46.6031 95.6055 47.4954C95.4699 48.3877 95.3042 49.3395 95.2138 50.2764C95.1235 51.2579 95.003 52.2394 94.8222 53.2209L94.6866 54.3363C94.5963 54.8865 94.5963 55.4963 94.4758 56.0911C94.3402 56.8198 94.2649 57.5039 94.1745 58.188C94.1293 58.6639 94.0841 59.1249 93.9636 59.5562C93.7979 60.2403 93.7075 60.969 93.6623 61.6531V62.4264L93.6925 62.3669ZM104.824 37.011C105.818 37.0557 106.812 37.0557 107.852 37.1003C108.198 37.1003 108.545 37.1449 108.891 37.1449C109.057 37.1895 109.192 37.3085 109.238 37.4869C109.283 37.5762 109.283 37.6505 109.283 37.7397L109.674 41.8889C109.81 43.3909 109.885 44.8334 110.021 46.3355C110.111 47.1088 110.232 47.8375 110.277 48.5959C110.412 49.9641 110.443 51.3323 110.533 52.7004V52.9533C110.443 53.0425 110.367 53.1168 110.277 53.1615C110.021 53.1615 109.72 53.2061 109.418 53.1615C108.68 52.9979 107.942 53.0276 107.204 52.9979L105.472 52.864C104.869 52.864 104.267 52.864 103.649 52.8194C102.309 52.8194 101.013 52.8194 99.6725 52.7748C99.2809 52.7748 99.2357 52.7302 99.2809 52.2989C99.2809 52.0461 99.3261 51.7487 99.3713 51.481L99.6273 49.6072C99.7177 48.4472 99.8382 47.3021 99.9286 46.0975C99.9738 45.8001 100.064 45.5027 100.094 45.2052C100.26 43.4504 100.396 41.6956 100.576 39.9407C100.667 39.093 100.787 38.2305 100.787 37.3828C100.787 37.13 100.878 37.0408 101.179 37.0408C102.384 36.9962 103.604 37.0408 104.809 37.0408V36.9962L104.824 37.011ZM128.338 63.3038C127.901 63.3484 127.599 63.051 127.343 62.7089C127.298 62.6643 127.298 62.5454 127.298 62.5007C127.298 62.3372 127.298 62.1141 127.389 61.9951C127.479 61.8315 127.434 61.6977 127.389 61.5192C127.223 61.0433 127.087 60.5823 126.952 60.0618C126.786 59.5116 126.515 58.9911 126.44 58.3962C126.274 57.5485 126.003 56.7306 125.792 55.8681C125.747 55.7788 125.792 55.7045 125.747 55.6153C125.4 54.1578 125.054 52.6261 124.662 51.1687C124.496 50.3954 124.271 49.5923 124.06 48.7744C124.014 48.5662 123.924 48.2687 123.849 48.0011C123.849 47.9564 123.804 47.9118 123.758 47.8672C123.758 47.9118 123.713 47.9564 123.713 48.0011C123.623 48.5067 123.578 49.0272 123.547 49.4585C123.502 49.8451 123.502 50.1872 123.502 50.5738C123.457 51.3471 123.457 52.1948 123.412 52.9681L123.276 56.5224C123.231 57.7567 123.186 59.0059 123.186 60.2403C123.186 60.7162 123.276 61.0879 123.276 61.4746C123.367 62.5007 123.276 62.59 122.327 62.8874C121.469 63.1402 120.64 63.1402 119.767 63.0956C119.42 63.0956 119.285 62.9618 119.255 62.6643C119.209 62.5305 119.209 62.4115 119.209 62.3223C119.164 61.43 119.164 60.5228 119.164 59.6752C119.164 59.1249 119.164 58.6044 119.119 58.0542C119.029 56.4332 119.164 54.8122 119.285 53.1763C119.33 52.4476 119.33 51.7189 119.33 50.9605C119.375 49.8005 119.541 48.6554 119.631 47.4954C119.767 46.0826 119.887 44.6698 119.887 43.2273C119.887 41.3833 119.932 39.5987 119.978 37.7546C119.978 36.8177 119.932 35.8362 119.887 34.8547V33.8285C119.887 33.3527 120.098 33.1891 120.58 33.1891H123.171C123.608 33.1891 123.683 33.2337 123.819 33.6203C123.954 34.007 124.03 34.3937 124.165 34.7803C124.331 35.286 124.466 35.8065 124.647 36.3121C125.25 38.0223 125.822 39.7771 126.244 41.5766C126.635 43.153 127.072 44.7888 127.494 46.3652L127.63 47.1385C127.84 48.0754 128.112 48.9826 128.322 49.9641L128.458 50.2615L128.594 50.3954C128.594 50.3954 128.684 50.3061 128.684 50.2615C128.684 50.0087 128.729 49.7113 128.729 49.3692C128.82 48.1349 128.865 46.8113 128.895 45.5175C128.985 44.194 129.03 42.915 129.061 41.6658C129.106 40.7289 129.061 39.792 129.196 38.8402C129.241 38.1115 129.196 37.3382 129.151 36.5798C129.061 35.7321 129.061 34.8696 129.061 34.0219C129.106 33.427 129.317 33.2486 129.919 33.2039H130.356C131.049 33.2932 131.742 33.3378 132.435 33.4121C132.6 33.4121 132.781 33.5014 132.917 33.546C133.082 33.5906 133.173 33.7096 133.173 33.8434V33.9326C133.218 35.048 133.308 36.1188 133.339 37.1746C133.384 38.0223 133.339 38.8402 133.248 39.6582C133.203 40.0448 133.203 40.4761 133.203 40.8479H133.158C133.158 41.6212 133.203 42.3796 133.158 43.153C133.113 44.9078 133.022 46.618 132.947 48.3728L132.811 51.362C132.766 51.9569 132.676 52.5963 132.646 53.2061V54.8271C132.691 55.6747 132.646 56.4927 132.555 57.3106C132.51 57.4444 132.51 57.5634 132.51 57.6526C132.721 58.426 132.555 59.1844 132.555 59.9577C132.555 60.5526 132.6 61.1921 132.6 61.8315C132.6 62.6495 132.435 62.8577 131.651 63.0659C131.169 63.1997 130.702 63.3187 130.22 63.4079C129.964 63.4525 129.708 63.4525 129.437 63.4079C129.046 63.3633 128.699 63.3187 128.307 63.3187L128.338 63.3038ZM142.663 63.393C142.361 63.1402 142.06 63.0064 141.714 62.9171C140.584 62.6197 139.68 61.9802 138.806 61.2069C138.415 60.9095 138.204 60.5228 138.068 60.0916C137.812 59.4075 137.677 58.6788 137.631 57.9947C137.375 55.987 137.195 53.9794 137.119 51.9271C137.119 51.4215 137.165 50.901 137.21 50.3954H137.255C137.21 48.938 137.119 47.4954 137.089 46.038V43.6883C137.134 43.4355 137.089 43.2124 137.134 43.0042C137.225 42.4094 137.225 41.8443 137.044 41.294C136.908 40.7438 137.044 40.1787 137.089 39.5838L137.18 39.45L138.264 36.208C138.565 35.2711 139.168 34.6316 139.906 33.9921C140.042 33.9029 140.207 33.7839 140.298 33.6501C140.855 33.0998 141.503 32.8322 142.286 32.7132C142.678 32.624 142.979 32.624 143.19 32.2819C143.325 32.1481 143.491 32.1183 143.702 32.1481L145.088 32.4901C146.428 32.9214 147.377 33.7244 148.115 34.8844C148.628 35.8213 148.808 36.8921 149.155 37.8736V38.1264C149.11 38.6766 149.155 39.1971 149.366 39.7028C149.456 39.911 149.366 40.0448 149.23 40.1787C149.019 40.4315 148.673 40.5653 148.326 40.6099L145.856 40.8628C145.419 40.8628 145.208 40.7735 145.118 40.3869C145.073 40.0894 145.027 39.792 145.027 39.45C145.073 38.632 144.726 37.829 144.47 37.0557C144.304 36.5054 143.777 36.327 143.175 36.208C143.13 36.208 143.009 36.2526 143.009 36.2972C142.873 36.5946 142.406 36.7731 142.181 37.0259C142.09 37.1895 141.97 37.368 141.924 37.5762C141.834 37.8736 141.759 38.171 141.759 38.4684C141.714 39.2418 141.247 39.9259 140.93 40.6099C140.795 40.9074 140.719 41.1156 141.021 41.4279C141.367 41.6807 141.367 42.0673 141.186 42.4094C141.096 43.0042 141.141 43.5694 141.186 44.1196C141.186 44.6252 141.141 45.1457 141.141 45.6514C141.141 46.157 141.186 46.6775 141.232 47.1831V51.6297C141.186 53.1317 141.397 54.6189 141.578 56.1209L141.744 57.6526C141.744 57.8162 141.744 57.9501 141.789 58.0839C142.045 58.8572 142.045 58.9762 143.175 59.0654H143.34C144.033 59.0654 144.078 59.0208 144.335 58.5152C144.726 57.6229 144.847 56.6414 144.771 55.6896C144.771 55.4368 144.681 55.3476 144.425 55.3476C144.335 55.3029 144.169 55.3029 144.033 55.3029C143.596 55.3029 143.295 55.1691 143.205 54.7081C143.039 53.9348 142.858 53.1763 142.994 52.403C143.039 52.1056 142.994 51.8082 143.13 51.5107C143.265 51.2579 143.431 51.1241 143.732 51.1241C144.033 51.0795 144.335 51.0795 144.636 51.1241C145.841 51.2579 146.715 51.1687 147.844 51.2579H148.281C148.417 51.2579 148.537 51.3918 148.537 51.5107C148.537 52.284 148.929 52.9681 148.929 53.6968C148.929 54.8568 148.974 56.0019 148.884 57.1173C148.838 58.0096 148.673 58.9613 148.281 59.809C148.146 60.1064 148.025 60.4485 147.889 60.8351C147.679 61.311 147.407 61.772 147.031 62.1141C146.474 62.5007 145.992 62.9618 145.434 63.3038C144.832 63.7351 144.094 63.8094 143.355 63.7351C143.099 63.6905 142.843 63.5715 142.663 63.393ZM162.064 62.2331C161.928 60.5228 161.582 58.8126 161.506 57.1024V56.9388C161.461 56.7752 161.371 56.5968 161.16 56.5968C160.512 56.5968 159.865 56.5075 159.217 56.5522C158.042 56.6414 156.972 56.5968 155.843 56.5075C154.593 56.4183 154.803 56.4629 154.713 57.5337C154.577 58.768 154.502 60.0916 154.367 61.3854C154.367 61.549 154.321 61.7274 154.276 61.891C153.975 62.9171 153.93 62.8279 152.981 62.8725C152.499 62.8725 151.987 62.8725 151.505 62.8279C151.339 62.8279 151.158 62.8279 150.992 62.7833C150.691 62.7387 150.556 62.5305 150.556 62.2331C150.556 61.9802 150.601 61.7274 150.601 61.4597C150.812 60.0916 150.857 58.6342 150.947 57.266C151.038 56.106 151.038 54.9609 151.158 53.8455C151.369 51.9717 151.55 49.9938 151.67 48.12C151.761 47.2724 151.926 46.4098 152.062 45.5621C152.062 45.3539 152.152 45.1309 152.152 44.9227C152.152 43.8519 152.318 42.8258 152.454 41.7997C152.499 41.6658 152.499 41.5022 152.499 41.3684C152.589 39.5689 152.936 37.8141 153.146 35.9849C153.237 35.3454 153.357 34.706 153.583 34.1111C153.628 33.9773 153.583 33.8137 153.538 33.6798C153.538 33.427 153.674 33.2486 153.975 33.2486C154.321 33.2486 154.668 33.2932 154.969 33.3378C155.27 33.3824 155.572 33.3824 155.828 33.3378C156.129 33.2932 156.475 33.2932 156.777 33.2932C158.599 33.2932 160.377 33.3378 162.139 33.3378C162.305 33.3378 162.486 33.2486 162.651 33.2932C162.907 33.3378 163.209 33.3824 163.435 33.5014C163.6 33.6352 163.691 33.888 163.736 34.0962C163.871 34.8696 163.947 35.5983 163.992 36.3567C164.037 36.6541 164.127 36.9962 163.856 37.2044C163.811 37.2936 163.811 37.368 163.811 37.4572C163.811 37.9331 163.856 38.3495 163.901 38.8254C163.992 40.1935 164.112 41.6063 164.248 42.9745C164.384 44.5955 164.459 46.1421 164.594 47.7185C164.685 48.6108 164.73 49.5626 164.76 50.4995C164.76 51.0943 164.85 51.6892 164.85 52.3435C164.941 53.5332 165.107 54.7378 165.197 55.9276C165.332 57.4593 165.543 59.0059 165.679 60.6269C165.679 60.8797 165.724 61.1326 165.724 61.4003C165.769 61.5638 165.769 61.7423 165.769 61.9059C165.724 62.3372 165.468 62.6346 165.031 62.7238C164.384 62.8577 163.736 62.9766 163.389 63.0212C162.305 63.0659 162.139 62.9766 162.049 62.2033L162.064 62.2331ZM159.684 52.9533V52.9086C160.03 52.9086 160.332 52.9533 160.633 52.9533C160.844 52.9533 160.934 52.8194 160.934 52.6112V52.4476C160.723 51.2877 160.633 50.1872 160.633 49.0718C160.633 48.7298 160.542 48.4323 160.542 48.0903C160.407 47.1534 160.286 46.2165 160.241 45.2647C160.241 44.1493 160.106 43.1232 160.075 42.0525V41.2345C160.03 40.8033 160.03 40.4166 159.94 40.0448C159.804 39.2715 159.774 38.5131 159.774 37.7844C159.774 37.7397 159.729 37.6951 159.729 37.6951C159.684 37.3977 159.563 37.2639 159.247 37.2639H157.861C157.696 37.2639 157.47 37.3085 157.304 37.3531C157.138 37.3531 157.048 37.4423 157.003 37.6059C156.747 39.1823 156.49 40.7735 156.355 42.3499C156.219 43.4653 156.144 44.5658 155.963 45.6811C155.828 46.7072 155.662 47.6888 155.526 48.7149C155.361 49.741 155.27 50.8118 155.18 51.8379C155.09 52.3435 155.27 52.522 155.737 52.5666L159.684 52.9533ZM171.237 62.7387C171.192 62.6048 171.192 62.4413 171.192 62.3074V59.1844C171.147 57.9947 171.056 56.7901 171.026 55.5558C170.981 54.7081 171.026 53.8009 171.026 52.9086C170.981 50.8564 170.981 48.7595 170.981 46.6626L170.846 43.153C170.846 42.9001 170.846 42.6027 170.891 42.3053C170.981 40.8033 170.936 39.3161 170.891 37.7695C170.891 37.6803 170.936 37.5613 170.891 37.4274C170.8 37.3382 170.725 37.2192 170.59 37.1746C170.454 37.0854 170.333 37.13 170.153 37.13C169.369 37.0854 168.601 37.0854 167.818 37.0854C167.652 37.0408 167.471 37.0854 167.306 37.0408C166.402 36.8326 166.477 36.9516 166.477 36.1039V33.9624C166.522 33.7988 166.477 33.6203 166.522 33.4568C166.613 33.1147 166.688 32.9809 167.125 32.9809C167.984 33.0255 168.812 32.9809 169.641 32.9809C171.764 33.0255 173.843 33.2337 175.967 33.1445C177.097 33.0998 178.181 33.1445 179.251 33.1445C179.462 33.1445 179.688 33.1445 179.853 33.1891C180.019 33.1891 180.109 33.3229 180.109 33.4419C180.109 33.6947 180.109 33.9178 180.064 34.126C179.974 34.6762 179.898 35.1967 179.763 35.7024C179.673 36.089 179.552 36.4311 179.416 36.7731C179.326 36.9069 179.16 36.9813 179.025 37.0705C178.889 37.1151 178.724 37.0705 178.588 37.0705L175.38 37.2044C175.214 37.2044 175.078 37.2044 174.943 37.249C174.852 37.2936 174.732 37.3828 174.687 37.4572C174.641 37.71 174.596 37.9628 174.596 38.2305C174.596 38.7361 174.596 39.3012 174.641 39.8069C174.777 40.9222 174.852 42.0227 174.807 43.1381C174.807 44.075 174.852 45.0119 174.898 45.9637C175.033 47.9267 175.063 49.8897 175.063 51.8676C175.018 52.3733 175.108 52.9384 175.108 53.4886C175.154 56.0911 175.274 58.7085 175.244 61.311C175.244 62.1587 175.244 62.4264 174.159 62.6792C173.376 62.8874 172.563 62.9766 171.779 63.1105C171.433 63.1551 171.267 63.0212 171.222 62.7238L171.237 62.7387ZM191.196 70.3529L191.151 69.9216C191.241 68.7616 191.06 67.6165 191.015 66.4119C190.97 65.594 190.925 64.7909 190.849 63.973C190.684 62.5602 190.684 61.1921 190.638 59.7793V59.5264C190.593 59.3629 190.473 59.229 190.292 59.1844H189.855C188.771 59.1398 187.731 59.1398 186.647 59.0952H186.3C186.089 59.0952 185.954 59.1844 185.909 59.3926C185.863 59.6454 185.773 59.9429 185.773 60.2403C185.638 61.6085 185.562 63.0212 185.381 64.3894C185.216 65.6684 185.125 66.9919 185.035 68.2857C184.99 68.7914 184.899 69.3119 184.99 69.8175C185.035 70.1149 184.854 70.3677 184.508 70.4124C183.95 70.5016 183.423 70.5462 182.866 70.5759C182.429 70.6206 181.962 70.6206 181.48 70.6206C181.088 70.6206 180.968 70.5313 180.968 70.1149C181.013 69.178 181.058 68.2709 181.058 67.334C181.104 66.5606 181.224 65.8022 181.149 65.0289V64.7761C181.45 63.4079 181.495 61.9505 181.631 60.5377C181.796 59.3777 181.887 58.188 181.977 56.9834C182.068 56.0911 182.113 55.1394 182.188 54.2471C182.233 53.3548 182.324 52.4476 182.399 51.5553C182.489 50.2764 182.61 49.0272 182.7 47.7929L182.956 45.6068C182.956 45.5175 183.001 45.4432 183.001 45.3539L183.258 41.3386C183.258 40.952 183.348 40.5207 183.393 40.1489C183.484 38.9592 183.559 37.71 183.694 36.5203C183.74 35.8362 183.83 35.1967 183.86 34.5572C183.95 33.3675 184.116 32.1183 184.071 30.9286C184.071 30.7948 184.026 30.6758 184.071 30.5866C184.161 30.3338 184.282 30.1107 184.583 30.0809C185.02 30.0363 185.412 29.9917 185.788 30.0363C187.264 30.0809 188.725 30.1702 190.202 30.1256C190.94 30.1256 191.678 30.2148 192.446 30.2594C192.612 30.2594 192.747 30.423 192.792 30.6014C192.883 30.8543 193.003 30.9435 193.275 30.9435H193.531C193.922 30.9881 193.967 31.0327 194.043 31.4194C194.133 31.6722 194.178 31.9696 194.178 32.2373C194.269 32.8768 194.344 33.4716 194.344 34.1111C194.389 35.1819 194.344 36.208 194.299 37.2787C194.299 37.8736 194.254 38.4684 194.299 39.0336C194.299 39.6284 194.344 40.1935 194.344 40.7438C194.344 40.833 194.299 40.9074 194.299 40.9966C194.254 41.1602 194.208 41.3833 194.208 41.5915C194.254 43.0489 194.254 44.4616 194.299 45.9042C194.344 46.6775 194.389 47.4062 194.389 48.12C194.434 48.5513 194.434 48.9677 194.48 49.399C194.48 49.8302 194.57 50.2467 194.525 50.6779C194.434 51.5256 194.525 52.3435 194.57 53.2061C194.57 53.8455 194.525 54.4404 194.66 55.0799C194.751 55.4219 194.706 55.8086 194.706 56.1952C194.706 57.1321 194.751 58.1137 194.751 59.0952V62.5602C194.751 62.6495 194.751 62.6941 194.796 62.7238C195.007 64.0474 194.931 65.3263 194.931 66.6499C194.931 67.1555 195.022 67.676 195.022 68.1816C195.067 68.6873 195.067 69.2078 195.022 69.7134C195.022 69.8026 194.931 69.9216 194.856 69.9662C194.721 70.0554 194.6 70.1298 194.419 70.1744C193.561 70.4718 192.642 70.68 191.693 70.7247C191.392 70.7247 191.211 70.6354 191.181 70.2934L191.196 70.3529ZM190.292 54.7527C190.337 54.4999 190.337 54.2768 190.337 54.0686C190.337 53.6373 190.247 53.2507 190.202 52.8789C190.156 52.5071 190.337 52.1056 190.292 51.7189C190.202 50.901 190.202 50.0979 190.156 49.2354C190.111 48.0754 190.066 46.8857 190.066 45.6811C190.066 44.6996 189.976 43.7627 189.976 42.7812C189.976 42.5284 189.931 42.2309 189.84 41.9632C189.795 41.7104 189.976 41.413 189.976 41.1453V38.2454C189.976 37.1746 189.976 36.1485 189.84 35.0778C189.84 34.9142 189.795 34.6911 189.75 34.5275C189.705 34.4383 189.614 34.3639 189.539 34.3639H188.891C188.545 34.3639 188.409 34.4978 188.409 34.8398L188.018 38.3941C187.927 39.212 187.882 39.9705 187.807 40.7884C187.671 41.9484 187.46 43.0935 187.505 44.2534C187.505 44.4616 187.46 44.6847 187.46 44.8483L187.069 47.9713C187.023 48.6108 187.023 49.2503 186.933 49.8451C186.722 51.0348 186.677 52.2394 186.541 53.3994C186.496 53.7414 186.451 54.0835 186.451 54.4255C186.406 54.6337 186.496 54.7676 186.662 54.8122C187.792 54.946 188.906 54.946 190.036 54.946C190.126 54.946 190.247 54.8568 190.247 54.7824L190.292 54.7527Z" fill="black"/>
</g>
<defs>
<clipPath id="clip0_15839_164262">
<rect width="195.082" height="70" fill="white" transform="translate(0 0.769531)"/>
</clipPath>
</defs>
</svg>
